<svg version="1.2" xmlns="http://www.w3.org/2000/svg" viewBox="0 0 38 37" width="38" height="37"><style>.a{fill:#0c66ff}</style><path class="a" d="m17.2 0c0.1 0 0.4 0 0.5 0 0.1 0 0.3 0 0.4 0 9.4 0 16.9 7.7 16.9 17.1 0 0.2 0 0.4 0 0.7-0.1 2.4-0.7 4.7-1.6 6.7h-10.7c1.6-1.8 2.6-4.5 2.6-7.4v-0.1c0-0.3 0-0.5 0-0.8 0-5-3.4-9-7.5-9-0.1 0-0.1 0-0.2 0-0.1 0-0.1 0-0.3 0-4.1 0-7.5 4-7.5 9 0 0.3 0 0.5 0 0.8v0.1c0 5.4 3.4 9.7 7.5 9.7q0.2 0 0.4 0h0.6 14.2l5.5 5.6-4.7 4.6-2.7-2.7h-12.3q-0.6 0-1.3 0c-0.3 0-0.7 0-1.1-0.1-8.7-0.5-15.5-7.6-15.9-16.4 0-0.2 0-0.4 0-0.7 0-9.4 7.6-17.1 16.9-17.1z"/></svg>